#!OML:ASF H:\charlestonDancing\Project 1\Capture day 1\Session 1\femaleDancer.ASF
:FULLY-SPECIFIED
:DEGREES
427
root 0.0843194 17.7856 -2.14262 314.837 -88.9987 -314.317
lowerback 12.6601 0.551468 -1.00577
upperback 0.59447 0.419296 -1.70992
thorax -6.47675 0.186843 -1.30828
lowerneck 8.08976 -5.63171 -1.25499
upperneck -5.09289 -7.6994 -0.456327
head -3.01195 -3.781 0.4578
rclavicle -1.73937e-015 -1.19271e-015
rhumerus -30.3094 4.37675 -81.5112
rradius 29.9862
rwrist 23.8721
rhand -28.1342 -32.8691
rfingers 7.12502
rthumb -1.51556 -62.8435
lclavicle -1.73937e-015 -1.19271e-015
lhumerus -43.9397 19.5853 7.83797
lradius 146.794
lwrist 2.33614
lhand 8.03884 7.72662
lfingers 7.12502
lthumb 33.264 34.6708
rfemur -29.0637 2.75831 16.8903
rtibia 42.11
rfoot -31.2281 0.62711
rtoes -23.3826
lfemur -9.4792 -3.04986 -28.6175
ltibia 31.8965
lfoot -12.4856 -7.98088
ltoes -7.66872
428
root 0.0782315 17.7736 -2.15842 319.55 -88.5753 -318.836
lowerback 12.5986 0.452575 -1.09036
upperback 0.332456 0.273224 -1.76882
thorax -6.72323 0.119159 -1.29896
lowerneck 7.94355 -5.28322 -0.942822
upperneck -5.08702 -7.23701 -0.984624
head -3.01972 -3.53855 0.208997
rclavicle -2.38542e-015 -1.86858e-014
rhumerus -30.4898 3.8832 -81.4734
rradius 29.7824
rwrist 23.9201
rhand -28.1612 -32.9118
rfingers 7.12502
rthumb -1.54156 -62.886
lclavicle -2.38542e-015 -1.86858e-014
lhumerus -43.6995 19.6977 8.11235
lradius 146.561
lwrist 2.24021
lhand 8.1288 7.67618
lfingers 7.12502
lthumb 33.3495 34.602
rfemur -29.0369 2.5186 16.677
rtibia 43.8454
rfoot -31.3705 0.552643
rtoes -25.6706
lfemur -9.73497 -3.73474 -28.863
ltibia 32.117
lfoot -12.7355 -7.74725
ltoes -7.5917
429
root 0.0695044 17.7617 -2.17821 324.22 -88.1645 -323.204
lowerback 12.3356 0.334116 -1.21984
upperback 0.0963029 0.106757 -1.73965
thorax -6.82927 0.0452917 -1.16495
lowerneck 7.66213 -4.91287 -0.743467
upperneck -5.11224 -6.75488 -1.46972
head -3.0027 -3.28702 -0.0118765
rclavicle -9.44227e-016 -1.03368e-014
rhumerus -30.653 3.714 -81.4602
rradius 29.6078
rwrist 23.6447
rhand -28.0192 -33.0852
rfingers 7.12502
rthumb -1.40446 -63.0604
lclavicle -9.44227e-016 -1.03368e-014
lhumerus -43.5415 19.9284 8.44607
lradius 146.248
lwrist 2.02629
lhand 8.74897 7.41386
lfingers 7.12502
lthumb 33.9388 34.2112
rfemur -29.2289 2.42963 16.5177
rtibia 45.8492
rfoot -32.2257 1.57269
rtoes -22.147
lfemur -10.1141 -4.34962 -28.9913
ltibia 32.3059
lfoot -12.9218 -7.66327
ltoes -7.16341
430
root 0.0539962 17.7532 -2.20019 329.891 -87.7592 -328.485
lowerback 11.9151 0.251832 -1.23554
upperback -0.175053 0.00918313 -1.70412
thorax -6.88184 0.0020254 -1.10055
lowerneck 7.44334 -4.60682 -0.585133
upperneck -5.19717 -6.35035 -1.74932
head -3.00575 -3.07991 -0.153038
rclavicle -5.46658e-016 1.74931e-014
rhumerus -30.9702 3.61722 -81.5014
rradius 29.4213
rwrist 23.1256
rhand -28.0536 -33.2617
rfingers 7.12502
rthumb -1.43768 -63.2366
lclavicle -5.46658e-016 1.74931e-014
lhumerus -43.1529 20.0424 8.95358
lradius 145.908
lwrist 1.7463
lhand 9.31285 7.12066
lfingers 7.12502
lthumb 34.4743 33.7979
rfemur -29.4772 2.33489 16.4913
rtibia 47.9518
rfoot -31.0991 1.40504
rtoes -24.628
lfemur -10.552 -4.73152 -28.9717
ltibia 32.4334
lfoot -13.0336 -7.71631
ltoes -7.14127
431
root 0.0321909 17.7512 -2.22113 332.436 -87.2532 -330.651
lowerback 11.4684 0.231654 -1.25898
upperback -0.48268 -0.015127 -1.75955
thorax -6.95691 -0.00753344 -1.14138
lowerneck 7.51731 -4.42218 -0.404109
upperneck -5.52967 -6.09774 -1.79736
head -3.14095 -2.95201 -0.205104
rclavicle 3.8763e-015 -1.66979e-014
rhumerus -31.4345 3.33387 -81.5941
rradius 29.0847
rwrist 22.7809
rhand -28.1806 -33.1706
rfingers 7.12502
rthumb -1.56031 -63.1446
lclavicle 3.8763e-015 -1.66979e-014
lhumerus -42.4566 19.9594 9.65392
lradius 145.506
lwrist 1.28958
lhand 9.71641 6.75096
lfingers 7.12502
lthumb 34.8573 33.3402
rfemur -29.5838 2.03423 16.4298
rtibia 49.9454
rfoot -31.507 1.21472
rtoes -25.2824
lfemur -10.8974 -4.86408 -29.0526
ltibia 32.4534
lfoot -13.124 -7.83028
ltoes -8.15941
432
root 0.0105499 17.7528 -2.23846 330.395 -86.5593 -328.26
lowerback 11.0765 0.223313 -1.51725
upperback -0.809835 -0.066796 -1.90862
thorax -7.08401 -0.0248404 -1.14466
lowerneck 7.60907 -4.2809 -0.305598
upperneck -5.81687 -5.8959 -1.66831
head -3.25493 -2.85497 -0.184423
rclavicle 5.2181e-015 -5.1684e-015
rhumerus -31.9169 2.93045 -81.6882
rradius 28.5262
rwrist 22.9966
rhand -28.1173 -32.9057
rfingers 7.12502
rthumb -1.4992 -62.8802
lclavicle 5.2181e-015 -5.1684e-015
lhumerus -41.7706 19.8568 10.3211
lradius 145.078
lwrist 0.903089
lhand 10.2765 6.14902
lfingers 7.12502
lthumb 35.3886 32.6134
rfemur -29.4783 1.49334 16.0879
rtibia 51.7132
rfoot -31.5852 0.641922
rtoes -26.8668
lfemur -11.1667 -4.51461 -29.4263
ltibia 32.3682
lfoot -13.0897 -8.4238
ltoes -9.09218
433
root -0.0124153 17.7516 -2.25638 330.041 -85.865 -327.627
lowerback 10.7389 0.191019 -1.73699
upperback -1.11867 -0.143954 -2.02292
thorax -7.22218 -0.0552069 -1.12932
lowerneck 7.24485 -4.10743 -0.427555
upperneck -5.57161 -5.63894 -1.30867
head -3.08206 -2.74297 -0.0732547
rclavicle -5.2181e-016 1.23246e-014
rhumerus -32.3105 2.51773 -81.7511
rradius 27.7426
rwrist 23.6401
rhand -28.012 -32.4424
rfingers 7.12502
rthumb -1.39755 -62.4176
lclavicle -5.2181e-016 1.23246e-014
lhumerus -41.2699 19.6737 10.9408
lradius 144.665
lwrist 0.55355
lhand 10.5185 5.42161
lfingers 7.12502
lthumb 35.618 31.8311
rfemur -29.0693 0.933339 15.8206
rtibia 53.0695
rfoot -31.2596 0.151282
rtoes -27.0456
lfemur -11.3129 -3.7391 -29.6919
ltibia 32.151
lfoot -12.8346 -9.61883
ltoes -8.46948
434
root -0.0430001 17.7508 -2.27593 332.968 -85.4172 -330.401
lowerback 10.4203 0.148132 -1.63268
upperback -1.37362 -0.182258 -2.02815
thorax -7.31281 -0.0766067 -1.18793
lowerneck 6.68974 -3.93583 -0.779774
upperneck -5.14505 -5.38507 -0.687801
head -2.79924 -2.63827 0.153477
rclavicle -6.28657e-015 -1.94809e-014
rhumerus -32.6588 2.17225 -81.8217
rradius 26.8246
rwrist 24.6615
rhand -27.9188 -31.9615
rfingers 7.12502
rthumb -1.30751 -61.9372
lclavicle -6.28657e-015 -1.94809e-014
lhumerus -40.9346 19.4396 11.7019
lradius 144.212
lwrist -0.0994254
lhand 10.0865 4.62404
lfingers 7.12502
lthumb 35.2084 31.1312
rfemur -28.2839 0.608471 15.9596
rtibia 53.8064
rfoot -30.8764 -0.220925
rtoes -25.0641
lfemur -11.2508 -2.95655 -29.56
ltibia 31.8312
lfoot -12.5365 -10.8458
ltoes -7.35643
435
root -0.0824168 17.7551 -2.29029 333.793 -84.9512 -331.105
lowerback 10.0114 0.161197 -1.54609
upperback -1.62833 -0.155657 -2.13462
thorax -7.35123 -0.0693338 -1.35358
lowerneck 6.37884 -3.87495 -1.06306
upperneck -4.89443 -5.2741 0.0366456
head -2.62659 -2.60486 0.415244
rclavicle -3.67752e-015 -1.31198e-014
rhumerus -33.1021 1.62551 -81.8708
rradius 25.8402
rwrist 26.0743
rhand -27.8637 -31.5682
rfingers 7.12502
rthumb -1.25429 -61.5442
lclavicle -3.67752e-015 -1.31198e-014
lhumerus -40.497 19.2145 12.5637
lradius 143.698
lwrist -0.811199
lhand 9.57562 3.74717
lfingers 7.12502
lthumb 34.7237 30.3673
rfemur -27.2312 0.286729 15.9475
rtibia 53.8011
rfoot -30.5834 -0.819639
rtoes -23.4438
lfemur -11.0689 -2.07471 -29.5798
ltibia 31.437
lfoot -12.1754 -12.2141
ltoes -6.50375
436
root -0.12988 17.7592 -2.30463 332.342 -84.3748 -329.534
lowerback 9.48438 0.252985 -1.67456
upperback -1.89913 -0.0587716 -2.34982
thorax -7.33788 -0.022852 -1.52275
lowerneck 6.26229 -3.93444 -0.941882
upperneck -4.74616 -5.3142 0.447327
head -2.54629 -2.64144 0.520918
rclavicle -8.02593e-015 -4.37326e-015
rhumerus -33.6173 0.875701 -81.8553
rradius 24.8896
rwrist 27.2833
rhand -27.7142 -31.0189
rfingers 7.12502
rthumb -1.10993 -60.9957
lclavicle -8.02593e-015 -4.37326e-015
lhumerus -39.9377 18.9076 13.4199
lradius 143.187
lwrist -1.32339
lhand 9.25844 2.82736
lfingers 7.12502
lthumb 34.4227 29.5163
rfemur -25.9637 -0.0472835 15.6655
rtibia 53.0008
rfoot -30.1577 -1.56954
rtoes -23.1149
lfemur -10.81 -0.907382 -29.8181
ltibia 30.9843
lfoot -11.4367 -14.103
ltoes -4.35796
437
root -0.187408 17.7589 -2.3197 330.089 -83.7274 -327.197
lowerback 8.87506 0.284107 -2.02784
upperback -2.15184 -0.0617575 -2.51545
thorax -7.2586 -0.0147647 -1.49559
lowerneck 6.15048 -3.98645 -0.750244
upperneck -4.63471 -5.36006 0.537133
head -2.4906 -2.67116 0.513681
rclavicle -1.676e-014 1.39149e-014
rhumerus -34.0525 0.4625 -81.848
rradius 24.0624
rwrist 28.1247
rhand -27.2554 -30.451
rfingers 7.12502
rthumb -0.666737 -60.4297
lclavicle -1.676e-014 1.39149e-014
lhumerus -39.7631 18.554 14.121
lradius 142.726
lwrist -1.73353
lhand 9.06708 1.9208
lfingers 7.12502
lthumb 34.241 28.6507
rfemur -24.4376 -0.298909 15.2262
rtibia 51.3764
rfoot -29.4691 -1.96902
rtoes -22.709
lfemur -10.4436 0.366928 -30.1596
ltibia 30.5052
lfoot -10.4108 -16.0866
ltoes -1.15499
438
root -0.254106 17.7523 -2.33176 328.265 -83.1017 -325.241
lowerback 8.12717 0.221913 -2.3578
upperback -2.40659 -0.173099 -2.62638
thorax -7.10168 -0.0596254 -1.40726
lowerneck 6.00284 -4.00076 -0.703123
upperneck -4.58916 -5.3725 0.565913
head -2.44842 -2.67942 0.510461
rclavicle 1.92324e-014 -1.55052e-014
rhumerus -34.3872 0.300925 -81.8731
rradius 23.33
rwrist 29.0029
rhand -26.7761 -29.828
rfingers 7.12502
rthumb -0.203814 -59.8077
lclavicle 1.92324e-014 -1.55052e-014
lhumerus -39.8955 18.2381 14.5892
lradius 142.253
lwrist -1.97227
lhand 9.43897 1.11652
lfingers 7.12502
lthumb 34.594 27.7664
rfemur -22.8015 -0.505126 14.7881
rtibia 49.0135
rfoot -28.1455 -1.79265
rtoes -21.1386
lfemur -10.1267 1.72631 -30.4708
ltibia 30.1096
lfoot -9.42791 -17.9518
ltoes 1.81718
439
root -0.326681 17.7493 -2.34303 329.876 -82.7895 -326.617
lowerback 7.20578 0.168479 -2.14423
upperback -2.70197 -0.195377 -2.61472
thorax -6.88552 -0.080585 -1.5086
lowerneck 5.86495 -4.03233 -0.643239
upperneck -4.65822 -5.40787 0.594141
head -2.4466 -2.69897 0.508175
rclavicle -7.35503e-015 -1.27222e-014
rhumerus -34.7552 0.0747159 -81.8507
rradius 22.731
rwrist 29.899
rhand -26.588 -29.1448
rfingers 7.12502
rthumb -0.0221943 -59.1245
lclavicle -7.35503e-015 -1.27222e-014
lhumerus -39.909 17.8661 15.0215
lradius 141.746
lwrist -2.12254
lhand 10.1473 0.507904
lfingers 7.12502
lthumb 35.2661 27.0014
rfemur -21.1531 -0.519795 14.9441
rtibia 46.0374
rfoot -25.9205 -1.85592
rtoes -17.6124
lfemur -9.9948 3.27309 -30.1957
ltibia 29.8281
lfoot -8.33597 -19.9896
ltoes 4.5214
440
root -0.4033 17.7417 -2.35285 331.891 -82.5814 -328.381
lowerback 6.23365 0.146942 -1.82569
upperback -3.06101 -0.167315 -2.55022
thorax -6.70607 -0.0804633 -1.62072
lowerneck 5.87109 -4.10106 -0.684466
upperneck -4.76545 -5.49472 0.745983
head -2.47726 -2.74602 0.568627
rclavicle 1.60767e-014 -1.59028e-015
rhumerus -35.2928 0.0219044 -81.8094
rradius 22.4058
rwrist 30.5635
rhand -26.3717 -28.7597
rfingers 7.12502
rthumb 0.186718 -58.7394
lclavicle 1.60767e-014 -1.59028e-015
lhumerus -39.8628 17.3551 15.4302
lradius 141.172
lwrist -2.36151
lhand 10.4874 -0.0565535
lfingers 7.12502
lthumb 35.5884 26.36
rfemur -19.645 -0.458675 15.2617
rtibia 43.1816
rfoot -24.0262 -1.15737
rtoes -9.27293
lfemur -9.85349 4.89123 -29.7772
ltibia 29.464
lfoot -6.86081 -22.14
ltoes 7.55483
441
root -0.480987 17.727 -2.36352 331.38 -82.2869 -327.673
lowerback 5.36541 0.13814 -1.88525
upperback -3.47119 -0.172511 -2.52995
thorax -6.64068 -0.0829939 -1.56421
lowerneck 6.01436 -4.199 -0.705645
upperneck -4.87645 -5.62458 0.807438
head -2.5374 -2.81179 0.602871
rclavicle -5.479e-015 -1.98785e-015
rhumerus -35.9426 0.249906 -81.829
rradius 22.2873
rwrist 30.8195
rhand -25.98 -28.472
rfingers 7.12502
rthumb 0.565016 -58.451
lclavicle -5.479e-015 -1.98785e-015
lhumerus -39.8711 16.7869 15.8222
lradius 140.515
lwrist -2.74626
lhand 10.5667 -0.772636
lfingers 7.12502
lthumb 35.6637 25.6258
rfemur -18.2843 -0.511912 15.2448
rtibia 40.7729
rfoot -25.4504 -3.37227
rtoes -12.3516
lfemur -9.61004 6.20337 -29.713
ltibia 29.1116
lfoot -5.42916 -23.9615
ltoes 10.4507
